/* XPM */
static char *closed1710337588[] = {
/* columns rows colors chars-per-pixel */
"10 10 96 2 ",
"   c #7E6A4F",
".  c #867459",
"X  c #7F6B50",
"o  c #816B4F",
"O  c #887254",
"+  c #846E50",
"@  c #786348",
"#  c #806C51",
"$  c #816B4E",
"%  c #70593D",
"&  c #6C563B",
"*  c #3D3325",
"=  c #443828",
"-  c #31271D",
";  c #362A1F",
":  c #30271D",
">  c #4D3F2D",
",  c #594830",
"<  c #665035",
"1  c #604B33",
"2  c #463827",
"3  c #896F4D",
"4  c #756042",
"5  c #5B4830",
"6  c #53422C",
"7  c #7B6443",
"8  c #967A53",
"9  c #493B29",
"0  c #5C462E",
"q  c #483725",
"w  c #3B2F21",
"e  c #51412D",
"r  c #826A47",
"t  c #846943",
"y  c #7C623E",
"u  c #765E3E",
"i  c #4C3F2C",
"p  c #2A231A",
"a  c #3F3020",
"s  c #403020",
"d  c #403325",
"f  c #534432",
"g  c #6A563A",
"h  c #8E7B56",
"j  c #877453",
"k  c #594831",
"l  c #3C3225",
"z  c #2F251B",
"x  c #382A1C",
"c  c #433221",
"v  c #413426",
"b  c #493C2B",
"n  c #50412D",
"m  c #6C5A3D",
"M  c #66563C",
"N  c #443827",
"B  c #2F281F",
"V  c #2F251C",
"C  c #392A1D",
"Z  c #433322",
"A  c #3A2E20",
"S  c #715C3E",
"D  c #433826",
"F  c #3F3323",
"G  c #715D3E",
"H  c #635038",
"J  c #2D231A",
"K  c #3B2C1E",
"L  c #453221",
"P  c #5E4D38",
"I  c #393023",
"U  c #2D251C",
"Y  c #2F261C",
"T  c #4C3E2A",
"R  c #6B563B",
"E  c #42311F",
"W  c #463422",
"Q  c #2E271E",
"!  c #241F19",
"~  c #241D17",
"^  c #2D241C",
"/  c #2C231B",
"(  c #272018",
")  c #32281D",
"_  c #443221",
"`  c #56422E",
"'  c #51402F",
"]  c #564332",
"[  c #503D2F",
"{  c #554233",
"}  c #534031",
"|  c #4B3A2B",
" . c #463628",
".. c #423426",
"X. c #4D3C29",
"o. c white",
/* pixels */
"  . X o O + @ # $ % ",
"& * = - ; : : > , < ",
"1 2 3 4 5 6 7 8 9 0 ",
"q w e r t y u i p a ",
"s d f g h j k l z x ",
"c v b n m M N B V C ",
"Z A S 4 D F G H J K ",
"L v P I U Y T R A E ",
"W Q ! ~ ^ / ( : ) _ ",
"` ' ] [ { } |  ...X."
};
