/* XPM */
static char *igrac1710337588[] = {
/* columns rows colors chars-per-pixel */
"10 10 100 2 ",
"   c #63513C",
".  c #63523C",
"X  c #5C4933",
"o  c #5E4832",
"O  c #634C34",
"+  c #5F4932",
"@  c #4D3B29",
"#  c #53402C",
"$  c #4F3C2A",
"%  c #4E3B29",
"&  c #57432E",
"*  c #261F17",
"=  c #513921",
"-  c #6B4825",
";  c #744D26",
":  c #674522",
">  c #4E381F",
",  c #3C2C1B",
"<  c #1C1712",
"1  c #533E2A",
"2  c #493726",
"3  c #523B23",
"4  c #7C5027",
"5  c #965821",
"6  c #AF712B",
"7  c #A76B29",
"8  c #945C26",
"9  c #795229",
"0  c #352719",
"q  c #4A3624",
"w  c #30251A",
"e  c #593E23",
"r  c #905C28",
"t  c #C78F3F",
"y  c #E6BE67",
"u  c #E5C064",
"i  c #B07830",
"p  c #78481E",
"a  c #382716",
"s  c #2C2117",
"d  c #2D2217",
"f  c #5E4224",
"g  c #A1672A",
"h  c #DBB762",
"j  c #FFEF92",
"k  c #FFEA8A",
"l  c #D7A24A",
"z  c #9B6227",
"x  c #452F1A",
"c  c #251C13",
"v  c #2F2418",
"b  c #50371E",
"n  c #965E29",
"m  c #CFA659",
"M  c #FEEE8B",
"N  c #FDEA87",
"B  c #D9AC4F",
"V  c #A16729",
"C  c #412D19",
"Z  c #251C14",
"A  c #32261A",
"S  c #44301B",
"D  c #8E5A28",
"F  c #AF7732",
"G  c #E3BF5F",
"H  c #E3BD5B",
"J  c #B57A2F",
"K  c #8A5B2C",
"L  c #342618",
"P  c #2A2019",
"I  c #37281B",
"U  c #362919",
"Y  c #5A3B1E",
"T  c #784E21",
"R  c #A36E2F",
"E  c #9C682C",
"W  c #7B5124",
"Q  c #52381F",
"!  c #1E1811",
"~  c #2F2218",
"^  c #35271A",
"/  c #1D1812",
"(  c #2D2216",
")  c #432F1A",
"_  c #392716",
"`  c #271D13",
"'  c #201912",
"]  c #171410",
"[  c #36271B",
"{  c #4C3A28",
"}  c #483626",
"|  c #4C3928",
" . c #402F22",
".. c #433223",
"X. c #3F2F20",
"o. c #382A1C",
"O. c #35271B",
"+. c #34271B",
"@. c #3D2E21",
"#. c white",
/* pixels */
"  . X o O + @ # $ % ",
"& * = - ; : > , < 1 ",
"2 3 4 5 6 7 8 9 0 q ",
"w e r t y u i p a s ",
"d f g h j k l z x c ",
"v b n m M N B V C Z ",
"A S D F G H J K L P ",
"I U Y T R E W Q ! ~ ",
"^ / d ( ) _ ` ' ] [ ",
"{ } |  ...X.o.O.+.@."
};
