/* XPM */
static char *pod__1_1710340202[] = {
/* columns rows colors chars-per-pixel */
"10 10 34 1 ",
"  c #6D788A",
". c #707B8D",
"X c #727D8F",
"o c #737E90",
"O c #747F91",
"+ c #758191",
"@ c #768193",
"# c #778393",
"$ c #778294",
"% c #788395",
"& c #798496",
"* c #7A8597",
"= c #7B8797",
"- c #7B8698",
"; c #7C8799",
": c #7C8898",
"> c #7D8999",
", c #7D889A",
"< c #7E899B",
"1 c #7E8A9A",
"2 c #7F8B9B",
"3 c #7F8A9C",
"4 c #808B9D",
"5 c #818D9D",
"6 c #818C9E",
"7 c #828D9F",
"8 c #828E9E",
"9 c #838EA0",
"0 c #848FA1",
"q c #8591A1",
"w c #8590A2",
"e c #8691A3",
"r c #8893A5",
"t c #8994A6",
/* pixels */
"64<;<-e*<r",
"6$-*$;*;26",
"4$-4*0<4<e",
"@<-4*-<X@6",
"%<663-e%<t",
"<.<-<*;4@*",
"r%;3<;*<*6",
";@ ;;<4*#5",
"69;<<2=6:q",
";<*-:*#<+5"
};
