/* XPM */
static char *mmzid__1_1710339914[] = {
/* columns rows colors chars-per-pixel */
"10 10 92 1 ",
"  c #0D0906",
". c #0F0C07",
"X c #0B0708",
"o c #0B090A",
"O c #0F0E0C",
"+ c #0E0E0E",
"@ c #110B0B",
"# c #0F110C",
"$ c #12110D",
"% c #16110D",
"& c #14100F",
"* c #14130E",
"= c #120D11",
"- c #110F10",
"; c #140E10",
": c #110F14",
"> c #121411",
", c #121214",
"< c #131315",
"1 c #151314",
"2 c #171216",
"3 c #151515",
"4 c #141615",
"5 c #171715",
"6 c #151517",
"7 c #161616",
"8 c #1B1610",
"9 c #181715",
"0 c #161815",
"q c #181914",
"w c #171518",
"e c #171719",
"r c #16151A",
"t c #17161B",
"y c #18171C",
"u c #17181A",
"i c #161A1B",
"p c #17181C",
"a c #171B1C",
"s c #181818",
"d c #1A1C1B",
"f c #1B1B1D",
"g c #1D1B1C",
"h c #1B1C1E",
"j c #1A1E1F",
"k c #1D1D1F",
"l c #221D19",
"z c #211D1C",
"x c #1E201F",
"c c #29221C",
"v c #1C1B20",
"b c #191D20",
"n c #191E21",
"m c #1D1C21",
"M c #1E1E20",
"N c #1E1F21",
"B c #211F20",
"V c #1F2120",
"C c #1D2122",
"Z c #1C2023",
"A c #1D2124",
"S c #202123",
"D c #232122",
"F c #262221",
"G c #202125",
"H c #212224",
"J c #222224",
"K c #222325",
"L c #232524",
"P c #232426",
"I c #212727",
"U c #242527",
"Y c #272727",
"T c #242328",
"R c #262729",
"E c #27282A",
"W c #262A2D",
"Q c #29292B",
"! c #292A2C",
"~ c #2D2D2D",
"^ c #2F2D2E",
"/ c #2B2F30",
"( c #2E2F31",
") c #2C3031",
"_ c gray19",
"` c #333331",
"' c #353533",
"] c #303435",
"[ c #343434",
"{ c #383735",
"} c #393937",
"| c #3A3A3A",
/* pixels */
"@&F{}_'|B2",
";z^'_YE^F1",
"2gfdU!EEG1",
"wQ(/)(LLG<",
"vTGhAZaZDs",
"rafZWIauk6",
"wmZZhdhZq+",
":wMGLLkqq ",
"=-64f00*&l",
"Xo-+>#$.8c"
};
